<svg width="165" height="32" viewBox="0 0 165 32" fill="none" xmlns="http://www.w3.org/2000/svg">
<path d="M48.472 22.28C53.904 22.28 57.544 18.052 57.544 12.592C57.544 7.188 53.904 2.96 48.472 2.96C43.068 2.96 39.4 7.188 39.4 12.592C39.4 18.052 43.068 22.28 48.472 22.28ZM48.5 19.956C44.216 19.956 41.976 16.904 41.976 12.592C41.976 8.336 44.216 5.256 48.5 5.256C52.784 5.256 55.024 8.336 55.024 12.592C55.024 16.904 52.784 19.956 48.5 19.956ZM63.2293 27.208V18.5C63.7053 20.544 64.9933 22.28 67.5973 22.28C71.0133 22.28 73.1413 19.48 73.1413 15.196C73.1413 10.912 71.0133 8.14 67.5973 8.14C64.9933 8.14 63.7053 9.876 63.2293 11.92V8.448H60.7933V27.208H63.2293ZM63.2293 16.176V14.244C63.2293 12.004 64.1813 10.184 66.7573 10.184C68.9133 10.184 70.6773 11.752 70.6773 15.196C70.6773 18.668 68.9133 20.236 66.7573 20.236C64.1813 20.236 63.2293 18.416 63.2293 16.176ZM82.0652 22.28C85.0052 22.28 86.8812 20.908 87.8892 19.284L86.4052 17.604C85.8732 18.78 84.7812 20.264 82.0652 20.264C79.6572 20.264 78.0612 18.64 77.9212 15.784H87.9732C88.0292 15.532 88.0852 15.112 88.0852 14.692C88.0852 10.716 85.7612 8.168 81.9252 8.168C78.2012 8.168 75.5692 10.94 75.5692 15.224C75.5692 19.536 78.2292 22.28 82.0652 22.28ZM81.9252 10.212C84.1932 10.212 85.6492 11.528 85.9012 14.02H77.9772C78.2852 11.5 79.7412 10.212 81.9252 10.212ZM93.6082 22V14.328C93.6082 12.06 94.5602 10.24 97.1642 10.24C99.4602 10.24 100.16 11.472 100.16 13.236V22H102.568V12.648C102.568 9.764 100.916 8.168 98.2562 8.168C95.5962 8.168 94.1402 9.96 93.6082 12.06V8.448H91.1722V22H93.6082ZM110.337 22.308C112.213 22.308 113.501 21.44 114.089 20.516L113.277 18.108C112.913 18.948 112.073 19.956 110.869 19.956C109.805 19.956 108.993 19.536 108.993 17.8V10.352H113.445V8.448H108.993V4.92L106.557 6.712V8.448H104.373V10.352H106.557V18.528C106.557 20.852 108.125 22.308 110.337 22.308ZM118.882 22.28C121.682 22.28 123.138 20.264 123.586 18.472V19.424C123.586 21.328 124.594 22 125.994 22H127.562V19.788H126.694C126.19 19.788 125.938 19.592 125.938 18.948V13.376C125.938 10.156 124.146 8.168 120.814 8.168C117.79 8.168 115.774 9.876 114.962 11.276L116.614 12.984C117.314 11.5 118.602 10.38 120.534 10.38C122.662 10.38 123.418 11.556 123.502 13.152L118.602 15.336C116.67 16.204 115.298 17.352 115.298 19.172C115.298 20.964 116.586 22.28 118.882 22.28ZM117.762 18.78C117.762 17.94 118.35 17.38 119.638 16.764L123.586 14.916V16.792C123.586 18.752 121.962 20.264 119.666 20.264C118.406 20.264 117.762 19.704 117.762 18.78ZM132.819 22V18.528C133.295 20.6 134.583 22.336 137.187 22.336C140.631 22.336 142.759 19.536 142.759 15.252C142.759 10.968 140.631 8.168 137.187 8.168C134.583 8.168 133.295 9.904 132.819 11.976V3.24H130.383V22H132.819ZM132.819 16.232V14.3C132.819 12.06 133.771 10.24 136.347 10.24C138.531 10.24 140.295 11.808 140.295 15.252C140.295 18.724 138.531 20.292 136.347 20.292C133.771 20.292 132.819 18.472 132.819 16.232ZM148.132 22V3.24H145.696V22H148.132ZM157.561 22.28C160.501 22.28 162.377 20.908 163.385 19.284L161.901 17.604C161.369 18.78 160.277 20.264 157.561 20.264C155.153 20.264 153.557 18.64 153.417 15.784H163.469C163.525 15.532 163.581 15.112 163.581 14.692C163.581 10.716 161.257 8.168 157.421 8.168C153.697 8.168 151.065 10.94 151.065 15.224C151.065 19.536 153.725 22.28 157.561 22.28ZM157.421 10.212C159.689 10.212 161.145 11.528 161.397 14.02H153.473C153.781 11.5 155.237 10.212 157.421 10.212Z" fill="white"/>
<path opacity="0.6" d="M27.3196 17.4779C28.6868 17.4779 29.9417 17.9109 30.9713 18.6249C31.6566 17.2294 32 15.7175 32 14.206C32 9.38143 28.1231 4 21.425 4C18.4972 4 15.544 5.10951 13.3411 7.22652L10.6712 9.79088C10.5955 9.90647 10.5452 9.9439 10.4749 10.0562L21.7435 20.8518C22.7673 18.8864 24.8676 17.4779 27.3196 17.4779ZM21.1798 22.3914L9.5253 11.2261C8.89227 12.2883 8.5777 13.374 8.5777 14.4269C8.5777 15.8555 9.14968 17.2318 10.2526 18.2912L12.0403 20.0086L7.52802 23.814C7.17745 24.1067 7 24.5168 7 24.9281C7 25.3038 7.1481 25.6801 7.44762 25.9689L9.1108 27.5693C9.25251 27.7059 9.42108 27.8144 9.60678 27.8883C9.79248 27.9623 9.99163 28.0002 10.1927 28C10.6201 28 11.0461 27.8292 11.3504 27.4918L15.3083 23.1469L17.0643 24.8334C18.218 25.9415 19.722 26.482 21.2342 26.482C21.4556 26.482 21.6838 26.4694 21.9044 26.4464C21.3886 25.5756 21.0681 24.5798 21.0681 23.5072C21.0674 23.1401 21.0723 22.7845 21.1798 22.3914ZM27.2757 19.0175C24.6874 19.0175 22.587 20.9875 22.587 23.4677C22.587 25.9057 24.6869 27.9595 27.2757 27.9595C29.8205 27.9595 31.9643 25.9895 31.9643 23.4677C31.9648 21.0296 29.8645 19.0175 27.2757 19.0175Z" fill="#FB9600"/>
</svg>
