<svg width="130" height="31" viewBox="0 0 130 31" fill="none" xmlns="http://www.w3.org/2000/svg">
<path d="M40.648 22.28C43.448 22.28 44.904 20.264 45.352 18.472V19.424C45.352 21.328 46.36 22 47.76 22H49.328V19.788H48.46C47.956 19.788 47.704 19.592 47.704 18.948V13.376C47.704 10.156 45.912 8.168 42.58 8.168C39.556 8.168 37.54 9.876 36.728 11.276L38.38 12.984C39.08 11.5 40.368 10.38 42.3 10.38C44.428 10.38 45.184 11.556 45.268 13.152L40.368 15.336C38.436 16.204 37.064 17.352 37.064 19.172C37.064 20.964 38.352 22.28 40.648 22.28ZM39.528 18.78C39.528 17.94 40.116 17.38 41.404 16.764L45.352 14.916V16.792C45.352 18.752 43.728 20.264 41.432 20.264C40.172 20.264 39.528 19.704 39.528 18.78ZM54.5848 22V14.328C54.5848 12.06 55.5368 10.24 57.5808 10.24C59.6248 10.24 60.5488 11.22 60.5488 13.208V22H62.9848V14.328C62.9848 12.06 63.9368 10.24 66.0088 10.24C68.0248 10.24 68.9768 11.22 68.9768 13.208V22H71.3848V12.62C71.3848 9.764 70.0128 8.168 67.3528 8.168C64.8888 8.168 63.4888 9.988 62.9568 12.144C62.8168 9.596 61.4448 8.168 58.9528 8.168C56.5168 8.168 55.1168 9.96 54.5848 12.032V8.448H52.1488V22H54.5848ZM77.8628 22.28C80.6628 22.28 82.1188 20.264 82.5668 18.472V19.424C82.5668 21.328 83.5748 22 84.9748 22H86.5428V19.788H85.6748C85.1708 19.788 84.9188 19.592 84.9188 18.948V13.376C84.9188 10.156 83.1268 8.168 79.7948 8.168C76.7708 8.168 74.7548 9.876 73.9428 11.276L75.5948 12.984C76.2948 11.5 77.5828 10.38 79.5148 10.38C81.6428 10.38 82.3988 11.556 82.4828 13.152L77.5828 15.336C75.6508 16.204 74.2788 17.352 74.2788 19.172C74.2788 20.964 75.5668 22.28 77.8628 22.28ZM76.7428 18.78C76.7428 17.94 77.3308 17.38 78.6188 16.764L82.5668 14.916V16.792C82.5668 18.752 80.9428 20.264 78.6468 20.264C77.3868 20.264 76.7428 19.704 76.7428 18.78ZM99.4047 22V19.844H93.4127L90.5567 19.956L91.9567 18.444L99.1247 10.464V8.448H88.3447V10.632H93.8327L96.3527 10.52L95.0087 11.864L87.7847 20.012V22H99.4047ZM106.581 22.28C110.333 22.28 112.993 19.508 112.993 15.224C112.993 10.94 110.333 8.168 106.581 8.168C102.829 8.168 100.197 10.94 100.197 15.224C100.197 19.508 102.829 22.28 106.581 22.28ZM106.581 20.236C104.285 20.236 102.689 18.64 102.689 15.224C102.689 11.78 104.285 10.212 106.581 10.212C108.905 10.212 110.529 11.78 110.529 15.224C110.529 18.64 108.905 20.236 106.581 20.236ZM118.487 22V14.328C118.487 12.06 119.439 10.24 122.043 10.24C124.339 10.24 125.039 11.472 125.039 13.236V22H127.447V12.648C127.447 9.764 125.795 8.168 123.135 8.168C120.475 8.168 119.019 9.96 118.487 12.06V8.448H116.051V22H118.487Z" fill="white"/>
<path opacity="0.6" d="M25.662 24.2683C25.662 25.1165 25.1895 26.7498 24.129 27.647C23.9166 27.8103 23.7031 27.7182 23.7965 27.4802C24.1056 26.7242 24.8138 24.9753 24.4813 24.5728C24.248 24.2672 23.2796 24.2893 22.4536 24.3605C22.0756 24.4083 21.7455 24.4305 21.4876 24.483C21.2508 24.5028 21.2018 24.2928 21.4398 24.1295C21.7455 23.9137 22.0756 23.7503 22.4548 23.6302C23.7965 23.2288 25.3481 23.4703 25.5698 23.727C25.6118 23.776 25.6631 23.9137 25.6631 24.2672L25.662 24.2683ZM23.4208 25.778C23.1127 26.0133 22.7892 26.2277 22.4525 26.4197C19.9768 27.9072 16.7708 28.6865 13.9848 28.6865C9.50129 28.6865 5.49146 27.0333 2.44879 24.2672C2.18863 24.0548 2.40446 23.7468 2.70896 23.9137C5.98729 25.827 10.045 26.9843 14.2461 26.9843C17.0548 26.9764 19.8376 26.4479 22.4536 25.4257C22.6426 25.3545 22.855 25.2577 23.0405 25.19C23.4686 24.9975 23.8455 25.4735 23.4208 25.778ZM16.2225 12.9097C16.2225 11.6952 16.2703 10.98 15.8678 10.3663C15.5108 9.86117 14.896 9.55783 14.0385 9.60567C13.1075 9.657 12.1076 10.2672 11.8521 11.386C11.8031 11.6427 11.6526 11.8947 11.3435 11.9495L8.50146 11.5878C8.29846 11.5412 7.99046 11.386 8.09079 10.98C8.70096 7.76933 11.445 6.6505 14.0385 6.5H14.6486C16.072 6.5 17.9001 6.90717 19.0703 7.97467C20.4901 9.3 20.3396 11.0803 20.3396 13.0147V17.5962C20.3396 18.9705 20.8961 19.5795 21.4573 20.2958C21.609 20.5513 21.6603 20.8523 21.4048 21.06C20.67 21.7156 19.9244 22.3589 19.1683 22.9897C18.9653 23.1448 18.599 23.1612 18.4566 23.0422C17.5583 22.2897 17.339 21.872 16.7825 21.1078C15.8141 22.124 15.0021 22.6852 14.035 22.9897C13.3548 23.1623 12.6553 23.247 11.9536 23.2417C9.51529 23.2417 7.58329 21.7215 7.58329 18.715C7.58329 16.3245 8.85496 14.6993 10.7333 13.9305C12.6116 13.1605 15.3416 12.9155 16.2213 12.9108L16.2225 12.9097ZM15.6648 18.967C16.2715 17.9497 16.2213 17.1167 16.2213 15.2512C15.4618 15.2512 14.6976 15.3037 14.0385 15.4588C12.8193 15.8123 11.8521 16.58 11.8521 18.2063C11.8521 19.478 12.5136 20.3437 13.6313 20.3437C13.7853 20.3437 13.9206 20.325 14.0385 20.2912C14.8201 20.0742 15.3078 19.6822 15.6648 18.967Z" fill="white"/>
</svg>
