<svg width="167" height="46" viewBox="0 0 167 46" fill="none" xmlns="http://www.w3.org/2000/svg">
<g clip-path="url(#clip0_9_4747)">
<path d="M28.0022 29.326L28.6341 11.2567C28.667 10.3167 28.8999 9.61893 29.3589 9.16435C29.7918 8.70886 30.3727 8.49383 31.0495 8.51743C31.7524 8.54194 32.3169 8.79691 32.7169 9.28144C33.143 9.76688 33.3266 10.4792 33.2938 11.4192L32.6618 29.4884C32.629 30.4285 32.3951 31.1523 31.9362 31.6069C31.4772 32.0615 30.9223 32.2774 30.2194 32.2529C29.5426 32.2293 29.0042 31.9753 28.6041 31.4907C28.1789 30.9792 27.9693 30.266 28.0022 29.326Z" fill="white"/>
<path d="M153.871 36.5384C147.363 36.3114 142.239 30.7995 142.467 24.2716C142.695 17.7437 148.192 12.6021 154.7 12.829C161.208 13.0559 166.332 18.5679 166.104 25.0958C165.875 31.6498 160.405 36.7662 153.871 36.5384ZM154.532 17.6335C150.653 17.4983 147.393 20.548 147.257 24.4386C147.121 28.3292 150.16 31.5986 154.039 31.7338C157.918 31.8691 161.178 28.8194 161.314 24.9288C161.449 21.0642 158.411 17.7688 154.532 17.6335Z" fill="white"/>
<path d="M100.844 34.6894C94.3364 34.4625 89.2122 28.9505 89.4405 22.4226C89.6688 15.8947 95.1656 10.7531 101.674 10.98C108.181 11.2069 113.306 16.7189 113.077 23.2468C112.848 29.8008 107.352 34.9163 100.844 34.6894ZM101.505 15.7846C97.6268 15.6493 94.3664 18.699 94.2304 22.5896C94.0943 26.4803 97.1336 29.7496 101.012 29.8848C104.891 30.0201 108.151 26.9704 108.287 23.0798C108.423 19.2153 105.384 15.9198 101.505 15.7846Z" fill="white"/>
<path d="M138.693 24.14C138.784 21.5288 138.01 19.0705 136.646 17.0622C134.663 14.1434 131.397 12.1472 127.627 11.885C127.497 11.8804 127.393 11.8768 127.263 11.8723L121.327 11.6653C120.312 11.6299 119.575 11.8395 119.116 12.2941C118.657 12.7487 118.397 13.4716 118.361 14.5161L117.737 32.3503C117.7 33.3948 117.909 34.1341 118.335 34.6195C118.761 35.105 119.508 35.3663 120.497 35.4008L126.433 35.6078C126.563 35.6123 126.667 35.6159 126.797 35.6205C130.575 35.6476 133.947 33.8829 136.156 31.0841C137.657 29.1496 138.601 26.7511 138.693 24.14ZM127.462 30.7548C126.889 30.761 126.263 30.7653 125.612 30.7426L122.515 30.6346L123.008 16.5343L126.105 16.6423C126.756 16.665 127.381 16.6868 127.952 16.759C130 17.0657 131.73 18.2763 132.793 19.9343C133.535 21.0843 133.955 22.4846 133.903 23.973C133.851 25.4613 133.335 26.8028 132.514 27.8984C131.337 29.5305 129.527 30.5915 127.462 30.7548Z" fill="white"/>
<path d="M83.1613 10.439C82.3114 10.1479 81.3623 10.4547 80.8413 11.1947L73.3278 21.8346L66.5759 10.6973C66.1078 9.92281 65.1825 9.55069 64.3143 9.78185C63.4462 10.013 62.8182 10.8277 62.7863 11.7416L62.1096 31.0903C62.0694 32.2393 62.9467 33.2372 64.0921 33.2771C65.2115 33.3161 66.1815 32.4088 66.2226 31.2338L66.6582 18.7785L71.438 26.6836C71.438 26.6836 71.438 26.6836 71.4371 26.7098C71.4371 26.7098 71.4362 26.7359 71.4622 26.7368C71.4864 26.7899 71.5106 26.843 71.5618 26.871C71.5869 26.898 71.5869 26.898 71.612 26.925C71.6371 26.952 71.6613 27.0052 71.6865 27.0322C71.7116 27.0592 71.7367 27.0862 71.7618 27.1132C71.7869 27.1402 71.813 27.1412 71.812 27.1673C71.8632 27.1952 71.8883 27.2222 71.9386 27.2763L71.9637 27.3033C72.0148 27.3312 72.066 27.3591 72.0911 27.3861C72.1171 27.3871 72.1162 27.4132 72.1162 27.4132C72.1413 27.4402 72.1934 27.442 72.2185 27.469C72.4231 27.5807 72.6295 27.6402 72.8629 27.6745C72.915 27.6763 72.941 27.6772 72.9931 27.679C73.0191 27.6799 73.0451 27.6808 73.0712 27.6818C73.0972 27.6827 73.1232 27.6836 73.1493 27.6845C73.2013 27.6863 73.2274 27.6872 73.2794 27.689C73.4886 27.6702 73.7247 27.6261 73.9366 27.5289C73.9635 27.5037 74.0156 27.5055 74.0426 27.4803L74.0695 27.4551C74.1225 27.4308 74.1755 27.4065 74.2024 27.3813C74.2284 27.3822 74.2293 27.3561 74.2293 27.3561C74.2823 27.3318 74.3093 27.3066 74.3631 27.2562C74.3901 27.231 74.4161 27.2319 74.417 27.2058C74.444 27.1806 74.4709 27.1554 74.4979 27.1302C74.5248 27.105 74.5518 27.0798 74.5796 27.0285C74.6066 27.0033 74.6066 27.0033 74.6335 26.9781C74.6614 26.9268 74.7144 26.9025 74.7422 26.8511L74.7691 26.8259C74.7691 26.8259 74.7691 26.8259 74.7701 26.7998L80.0905 19.2469L79.6549 31.7021C79.6147 32.851 80.4921 33.8489 81.6375 33.8889C82.7568 33.9279 83.7268 33.0206 83.7679 31.8455L84.4446 12.4968C84.5807 11.5865 84.0112 10.7301 83.1613 10.439Z" fill="white"/>
<path d="M55.0792 32.3877L39.7465 31.8531C38.9396 31.825 38.0718 31.298 37.7608 30.5028C37.4498 29.7077 37.4352 28.6353 38.1682 27.7981L51.1999 13.6383L40.8393 13.277C39.7199 13.238 38.8175 12.2131 38.8595 11.0119C38.9015 9.81081 39.8391 9.08535 40.9845 9.12528L54.9375 9.61181C55.7444 9.63995 56.5729 9.79955 57.2735 10.6344C57.9247 11.3892 57.817 12.9801 57.0552 13.8948L44.4555 27.6252L55.2326 28.001C56.378 28.0409 57.1503 29.0613 57.1083 30.2624C57.0663 31.4636 56.2246 32.4277 55.0792 32.3877Z" fill="white"/>
<path d="M12.6489 31.6141C9.23876 31.4952 6.2145 30.0303 4.08765 27.4986C2.23618 25.2903 1.21636 22.4051 1.31498 19.5851C1.62273 10.7854 9.02667 7.74952 13.6343 7.91018C18.1638 8.06812 21.3922 10.4029 21.5447 10.5128C22.5353 11.2532 22.7733 12.6471 22.0339 13.6671C21.3205 14.6879 19.9317 14.9009 18.9402 14.1866C18.8891 14.1587 16.5741 12.5355 13.4763 12.4275C10.5868 12.3267 6.53727 14.094 6.3391 19.7602C6.22678 22.972 8.48837 26.8678 12.8617 27.0203C15.3347 27.1065 17.0756 26.5136 18.1137 25.8962L18.2306 22.5539L14.8465 22.4359C13.623 22.3933 12.6694 21.3404 12.7123 20.1132C12.7561 18.8598 13.78 17.9021 15.0035 17.9447L20.6524 18.1417C21.8759 18.1844 22.8295 19.2372 22.7866 20.4645L22.5519 27.1752C22.5309 27.7757 22.2756 28.3681 21.8184 28.7705C20.2835 30.181 16.9441 31.7639 12.6489 31.6141Z" fill="white"/>
</g>
<defs>
<clipPath id="clip0_9_4747">
<rect width="165" height="40" fill="white" transform="matrix(0.999393 0.0348477 -0.0349514 0.999389 2 0)"/>
</clipPath>
</defs>
</svg>
