<svg width="240" height="49" viewBox="0 0 240 49" fill="none" xmlns="http://www.w3.org/2000/svg">
<g clip-path="url(#clip0_9_4743)">
<path d="M90.7076 18.7222L90.1884 33.5699L84.7744 33.3811L85.2936 18.5335L79.8178 18.3425L79.9831 13.6155L96.3334 14.1856L96.168 18.9126L90.7076 18.7222Z" fill="white"/>
<path d="M108.509 28.2969L99.908 27.997C100.021 29.6303 100.94 30.3761 102.317 30.4241C103.601 30.4689 104.678 30.2271 106.143 29.5179L107.948 32.8085C106.101 33.8148 104.208 34.3539 101.919 34.2741C97.5102 34.1204 95.1911 30.905 95.3488 26.3949C95.5261 21.3269 98.4628 18.8378 102.314 18.9721C106.336 19.1124 108.75 21.85 108.559 27.3055C108.544 27.7395 108.533 28.0495 108.509 28.2969ZM102.045 22.7024C100.9 22.6625 100.238 23.4308 100.018 24.8663L104.21 25.0125C103.999 23.5154 103.53 22.7542 102.045 22.7024Z" fill="white"/>
<path d="M117.634 34.8372C113.334 34.6873 110.862 31.8545 111.035 26.9105C111.193 22.4004 113.591 19.3805 118.277 19.5439C121.046 19.6404 122.579 20.9818 123.791 23.0879L120.234 25.6019C119.583 24.2912 119.125 23.6546 118.042 23.6168C116.758 23.572 116.064 24.8358 115.982 27.1606C115.901 29.4853 116.555 30.703 117.932 30.751C118.876 30.7839 119.575 30.2807 120.536 28.9331L123.635 31.5395C121.845 33.991 120.233 34.9279 117.634 34.8372Z" fill="white"/>
<path d="M134.769 35.1245L135.06 26.7863C135.127 24.88 134.51 24.3619 133.474 24.3258C132.406 24.2885 131.755 24.7624 131.69 26.6222L131.397 35.007L126.369 34.8317L127.012 16.4503L132.11 14.6108L131.876 21.3062C132.828 20.6411 133.87 20.0878 135.602 20.1482C138.82 20.2604 140.276 22.4681 140.141 26.3272L139.827 35.3009L134.769 35.1245Z" fill="white"/>
<path d="M151.835 36.03C146.034 35.8277 143.076 31.4107 143.278 25.6297C143.498 19.3373 147.313 15.6685 152.556 15.8514C157.352 16.0186 159.182 18.1617 160.398 21.8973L155.428 23.6327C154.796 21.7951 154.17 20.625 152.376 20.5624C150.118 20.4837 149.064 22.7125 148.956 25.8122C148.851 28.8034 149.712 31.2076 152.063 31.2896C153.764 31.3489 154.524 30.4444 155.64 28.6367L160.134 31.2296C158.744 33.7726 156.476 36.1918 151.835 36.03Z" fill="white"/>
<path d="M172.646 27.2901C172.036 26.5705 171.328 26.0182 170.353 25.9843C169.131 25.9416 168.353 26.5042 168.29 28.2865L168.011 36.2838L162.983 36.1085L163.497 21.4313L168.524 21.6066L168.487 22.676C169.382 21.8693 170.375 21.3763 171.659 21.4211C172.726 21.4583 173.429 21.7311 174.004 22.1235L172.646 27.2901Z" fill="white"/>
<path d="M184.268 36.8506L184.302 35.8742C183.381 36.5403 182.308 37.0926 180.607 37.0333C177.389 36.9211 175.933 34.7134 176.068 30.8542L176.382 21.8805L181.44 22.0569L181.149 30.3951C181.082 32.3015 181.699 32.8195 182.735 32.8557C183.772 32.8918 184.423 32.418 184.488 30.5581L184.781 22.1734L189.84 22.3498L189.326 37.027L184.268 36.8506Z" fill="white"/>
<path d="M201.345 37.4458L201.637 29.1076C201.704 27.2012 201.087 26.6832 200.05 26.647C198.983 26.6098 198.332 27.0837 198.266 28.9435L197.973 37.3282L192.946 37.1529L193.459 22.4758L198.487 22.6511L198.452 23.6275C199.405 22.9624 200.446 22.409 202.179 22.4695C205.396 22.5816 206.852 24.7893 206.717 28.6485L206.404 37.6222L201.345 37.4458Z" fill="white"/>
<path d="M216.184 38.2736C211.884 38.1236 209.412 35.2908 209.585 30.3468C209.743 25.8367 212.141 22.8168 216.828 22.9802C219.597 23.0768 221.129 24.4182 222.341 26.5243L218.784 29.0382C218.133 27.7276 217.675 27.0909 216.592 27.0531C215.308 27.0084 214.614 28.2721 214.532 30.5969C214.451 32.9217 215.105 34.1393 216.482 34.1873C217.426 34.2202 218.125 33.717 219.086 32.3695L222.185 34.9759C220.396 37.4273 218.783 38.3642 216.184 38.2736Z" fill="white"/>
<path d="M233.319 38.5609L233.611 30.2226C233.677 28.3163 233.06 27.7982 232.024 27.7621C230.957 27.7249 230.305 28.1987 230.24 30.0585L229.947 38.4433L224.919 38.268L225.562 19.8866L230.66 18.0471L230.426 24.7425C231.378 24.0774 232.42 23.5241 234.152 23.5845C237.37 23.6967 238.826 25.9044 238.691 29.7636L238.377 38.7372L233.319 38.5609Z" fill="white"/>
<path d="M1.9126 2.49841L1.52125 13.6884L12.6895 14.0778L11.9074 36.4423L23.0602 36.8312L23.8424 14.4667L35.0107 14.8561L35.402 3.66615L1.9126 2.49841Z" fill="white"/>
<path d="M45.7727 26.4196L46.1635 15.2451L35.0107 14.8561L34.2285 37.2207L67.7025 38.3879L68.0938 27.1979L45.7727 26.4196Z" fill="white"/>
<path d="M68.876 4.83335L46.5548 4.05504L46.1635 15.2451L68.4846 16.0233L68.876 4.83335Z" fill="white"/>
</g>
<defs>
<clipPath id="clip0_9_4743">
<rect width="238" height="40" fill="white" transform="matrix(0.999393 0.0348477 -0.0349514 0.999389 2 0)"/>
</clipPath>
</defs>
</svg>
