<svg width="22" height="22" viewBox="0 0 22 22" fill="none" xmlns="http://www.w3.org/2000/svg">
<path d="M16.5002 6.56332C16.4452 6.55415 16.3811 6.55415 16.3261 6.56332C15.0611 6.51748 14.0527 5.48165 14.0527 4.19831C14.0527 2.88748 15.1069 1.83331 16.4177 1.83331C17.7286 1.83331 18.7827 2.89665 18.7827 4.19831C18.7736 5.48165 17.7652 6.51748 16.5002 6.56332Z" stroke="white" stroke-width="1.38684" stroke-linecap="round" stroke-linejoin="round"/>
<path d="M15.5563 13.2366C16.8121 13.4474 18.1963 13.2274 19.168 12.5766C20.4605 11.7149 20.4605 10.3032 19.168 9.44156C18.1871 8.79073 16.7846 8.57072 15.5288 8.79072" stroke="white" stroke-width="1.38684" stroke-linecap="round" stroke-linejoin="round"/>
<path d="M5.47244 6.56326C5.52744 6.55409 5.59161 6.55409 5.64661 6.56326C6.91161 6.51742 7.91994 5.48159 7.91994 4.19825C7.91994 2.88742 6.86578 1.83325 5.55494 1.83325C4.24411 1.83325 3.18994 2.89659 3.18994 4.19825C3.19911 5.48159 4.20744 6.51742 5.47244 6.56326Z" stroke="white" stroke-width="1.38684" stroke-linecap="round" stroke-linejoin="round"/>
<path d="M6.41649 13.2366C5.16066 13.4474 3.77649 13.2274 2.80482 12.5766C1.51232 11.7149 1.51232 10.3032 2.80482 9.44156C3.78566 8.79073 5.18816 8.57072 6.44399 8.79072" stroke="white" stroke-width="1.38684" stroke-linecap="round" stroke-linejoin="round"/>
<path d="M11.0002 13.4109C10.9452 13.4017 10.8811 13.4017 10.8261 13.4109C9.56107 13.365 8.55273 12.3292 8.55273 11.0459C8.55273 9.73503 9.6069 8.68086 10.9177 8.68086C12.2286 8.68086 13.2827 9.7442 13.2827 11.0459C13.2736 12.3292 12.2652 13.3742 11.0002 13.4109Z" stroke="white" stroke-width="1.38684" stroke-linecap="round" stroke-linejoin="round"/>
<path d="M8.33266 16.2983C7.04016 17.16 7.04016 18.5716 8.33266 19.4333C9.79932 20.4141 12.201 20.4141 13.6677 19.4333C14.9602 18.5716 14.9602 17.16 13.6677 16.2983C12.2102 15.3266 9.79932 15.3266 8.33266 16.2983Z" stroke="white" stroke-width="1.38684" stroke-linecap="round" stroke-linejoin="round"/>
</svg>
