<svg width="117" height="35" viewBox="0 0 117 35" fill="none" xmlns="http://www.w3.org/2000/svg">
<path d="M108.83 14V11.4683H108.046V10.908H110.245V11.4683H109.473V14H108.83ZM110.564 14V10.908H111.186L112.344 12.4436H112.054L113.179 10.908H113.801V14H113.158V11.6177L113.415 11.6758L112.224 13.2114H112.141L110.991 11.6758L111.207 11.6177V14H110.564Z" fill="#111111"/>
<path d="M26.383 10.8852C26.1565 10.6651 25.8388 10.5651 25.5279 10.6163C25.2164 10.6672 24.9473 10.8628 24.8028 11.1434C24.3059 12.1089 23.6746 12.9961 22.9319 13.7805C23.006 13.2139 23.0432 12.6439 23.0432 12.0724C23.0432 10.9759 22.8963 9.84742 22.6063 8.71805C21.6528 5.00853 19.1526 1.87144 15.747 0.111205C15.4505 -0.0419942 15.0972 -0.0366153 14.8054 0.125549C14.5137 0.287779 14.3227 0.585213 14.2965 0.917908C14.031 4.28895 12.2946 7.35586 9.52993 9.33424C9.49334 9.3606 9.45702 9.38729 9.4207 9.41386C9.34546 9.46891 9.27454 9.52097 9.20826 9.56467C9.1979 9.57157 9.18761 9.57861 9.17752 9.58585C7.43874 10.8308 6.00403 12.4903 5.02832 14.3854C4.03688 16.3131 3.53418 18.3818 3.53418 20.5336C3.53418 21.6299 3.68114 22.7583 3.971 23.8879C5.50067 29.8417 10.8586 33.9999 17.0005 33.9999C24.4255 33.9999 30.466 27.9589 30.466 20.5336C30.466 16.872 29.016 13.4454 26.383 10.8852Z" fill="url(#paint0_linear_9_4899)"/>
<circle cx="16" cy="20" r="4" fill="white"/>
<path d="M46.5861 28.1299C47.622 28.1299 48.5384 27.9407 49.3353 27.5622C50.1322 27.1637 50.7398 26.5661 51.1582 25.7692V27.7714H55.3417V11.4554H50.8593V20.988C50.8593 21.9243 50.5804 22.6813 50.0226 23.2591C49.4648 23.8169 48.7476 24.0958 47.8711 24.0958C46.9945 24.0958 46.2773 23.8169 45.7195 23.2591C45.1617 22.6813 44.8828 21.9243 44.8828 20.988V11.4554H40.4004V21.3466C40.4004 23.3786 40.9283 25.0221 41.9842 26.2772C43.06 27.5124 44.5939 28.1299 46.5861 28.1299Z" fill="white"/>
<path d="M58.6179 9.99114H63.1003V5.50874H58.6179V9.99114ZM58.6179 27.7714H63.1003V11.4554H58.6179V27.7714Z" fill="white"/>
<path d="M68.3526 27.7714H72.835V15.3401H76.3313V11.4554H72.835V11.2163C72.835 9.76204 73.6817 9.0349 75.3751 9.0349C75.654 9.0349 75.9827 9.06478 76.3612 9.12455V5.29956C75.903 5.19995 75.3751 5.15015 74.7774 5.15015C72.7454 5.15015 71.1616 5.67807 70.0261 6.73393C68.9104 7.78979 68.3526 9.28392 68.3526 11.2163V11.4554H65.6034V15.3401H68.3526V27.7714Z" fill="white"/>
<path d="M78.6369 27.7714H83.1194V18.9858C83.1194 17.7706 83.458 16.8343 84.1354 16.1769C84.8127 15.4995 85.6992 15.1609 86.7949 15.1609H88.1994V11.2761H87.2432C86.2471 11.2761 85.3606 11.4654 84.5836 11.8439C83.8266 12.2025 83.2389 12.8898 82.8205 13.9058V11.4554H78.6369V27.7714Z" fill="white"/>
<path d="M92.704 34.4053C95.6923 34.4053 97.8538 32.702 99.1885 29.2954L106.181 11.4554H101.37L97.5151 21.9442L93.6602 11.4554H88.8491L95.2739 27.7714L94.9751 28.4587C94.736 28.9965 94.4272 29.4747 94.0487 29.893C93.6702 30.3114 93.0427 30.5206 92.1661 30.5206C91.4489 30.5206 90.7716 30.421 90.1341 30.2217V33.8973C90.4728 34.0766 90.8612 34.2061 91.2995 34.2858C91.7577 34.3655 92.2259 34.4053 92.704 34.4053Z" fill="white"/>
<defs>
<linearGradient id="paint0_linear_9_4899" x1="17.0001" y1="0" x2="17.0001" y2="33.9999" gradientUnits="userSpaceOnUse">
<stop stop-color="#CE9FFC"/>
<stop offset="0.505208" stop-color="#A582F7"/>
<stop offset="1" stop-color="#7367F0"/>
</linearGradient>
</defs>
</svg>
