<svg width="168" height="148" viewBox="0 0 168 148" fill="none" xmlns="http://www.w3.org/2000/svg">
<path d="M142.505 67.8726C141.093 66.5004 139.111 65.8768 137.173 66.1956C135.23 66.5132 133.553 67.7326 132.652 69.4825C129.553 75.5025 125.617 81.0348 120.986 85.9253C121.448 82.3925 121.68 78.8386 121.68 75.2752C121.68 68.4378 120.764 61.4016 118.956 54.3597C113.011 31.2297 97.4211 11.669 76.1859 0.693426C74.3371 -0.261816 72.1343 -0.228277 70.3153 0.782864C68.4963 1.79442 67.3051 3.649 67.1419 5.72346C65.4865 26.7429 54.6596 45.866 37.4209 58.2017C37.1928 58.3661 36.9663 58.5326 36.7398 58.6982C36.2707 59.0415 35.8284 59.3661 35.4152 59.6385C35.3506 59.6816 35.2864 59.7255 35.2235 59.7706C24.3817 67.5331 15.4359 77.8805 9.35205 89.6974C3.1701 101.717 0.0356445 114.616 0.0356445 128.033C0.0356445 134.869 0.951965 141.905 2.75935 148.948C12.2973 186.072 45.7055 211.999 84.0021 211.999C130.299 211.999 167.964 174.332 167.964 128.033C167.964 105.202 158.922 83.8363 142.505 67.8726Z" fill="white" fill-opacity="0.02"/>
</svg>
